<?xml version="1.0" encoding="UTF-8"?>
<svg width="32px" height="32px" viewBox="0 0 32 32" version="1.1" xmlns="http://www.w3.org/2000/svg" xmlns:xlink="http://www.w3.org/1999/xlink">
    <!-- Generator: Sketch 45.1 (43504) - http://www.bohemiancoding.com/sketch -->
    <title>close - icon - default</title>
    <desc>Created with Sketch.</desc>
    <defs></defs>
    <g id="Page-1" stroke="none" stroke-width="1" fill="none" fill-rule="evenodd">
        <g id="Assets" transform="translate(-56.000000, -89.000000)"></g>
        <g id="close---icon---default" fill="#77909D">
            <path d="M17.3550136,15.8243243 L20.8780488,12.2837838 C21.0406504,12.1216216 21.0406504,11.8783784 20.8780488,11.7162162 L20.3360434,11.1486486 C20.1734417,10.9864865 19.9295393,10.9864865 19.7669377,11.1486486 L16.2168022,14.6891892 C16.1084011,14.7972973 15.9457995,14.7972973 15.8373984,14.6891892 L12.2872629,11.1216216 C12.1246612,10.9594595 11.8807588,10.9594595 11.7181572,11.1216216 L11.1490515,11.6891892 C10.9864499,11.8513514 10.9864499,12.0945946 11.1490515,12.2567568 L14.699187,15.7972973 C14.8075881,15.9054054 14.8075881,16.0675676 14.699187,16.1756757 L11.1219512,19.7432432 C10.9593496,19.9054054 10.9593496,20.1486486 11.1219512,20.3108108 L11.6910569,20.8783784 C11.8536585,21.0405405 12.097561,21.0405405 12.2601626,20.8783784 L15.8102981,17.3378378 C15.9186992,17.2297297 16.0813008,17.2297297 16.1897019,17.3378378 L19.7398374,20.8783784 C19.902439,21.0405405 20.1463415,21.0405405 20.3089431,20.8783784 L20.8780488,20.3108108 C21.0406504,20.1486486 21.0406504,19.9054054 20.8780488,19.7432432 L17.3550136,16.2027027 C17.2466125,16.0945946 17.2466125,15.9324324 17.3550136,15.8243243" id="close"></path>
        </g>
    </g>
</svg>